<svg xmlns="http://www.w3.org/2000/svg" xmlns:xlink="http://www.w3.org/1999/xlink" width="500" zoomAndPan="magnify" viewBox="0 0 375 374.999991" height="500" preserveAspectRatio="xMidYMid meet" version="1.0"><defs><clipPath id="a411ff1510"><path d="M 20.390625 5 L 354 5 L 354 375 L 20.390625 375 Z M 20.390625 5 " clip-rule="nonzero"/></clipPath></defs><g clip-path="url(#a411ff1510)"><path stroke-linecap="round" transform="matrix(18.48066, 0, 0, 18.465123, -16.570691, -31.311711)" fill="none" stroke-linejoin="round" d="M 9.999917 14.999307 C 9.347419 15.698683 8.989148 16.622722 8.999927 17.57934 L 8.999927 20.999216 M 14.000087 14.999307 C 14.652797 15.698683 15.010857 16.622722 15.000077 17.57934 L 15.000077 20.999216 M 8.999927 19.049383 C 8.105411 19.405418 7.135225 19.529384 6.180045 19.409225 C 4.660086 18.889242 5.059998 17.509318 4.280044 16.939197 C 3.905286 16.671378 3.460353 16.518429 2.99999 16.49939 M 19.000036 9.749334 C 19.000036 12.749288 17.049939 14.999307 11.999896 14.999307 C 6.950065 14.999307 4.999969 12.749288 4.999969 9.749334 C 4.975239 8.70852 5.209013 7.677649 5.679945 6.749168 C 5.340063 5.279336 5.470055 3.469336 6.199914 3.109282 C 6.929985 2.749228 8.470024 3.409256 9.739933 4.259254 C 10.486067 4.126191 11.242136 4.05913 11.999896 4.059342 C 12.757234 4.052572 13.513303 4.112863 14.260072 4.239368 C 15.52998 3.389371 17.139983 2.759171 17.80009 3.089185 C 18.459986 3.419199 18.659942 5.259239 18.320059 6.729282 C 18.794373 7.663687 19.027936 8.701751 19.000036 9.749334 Z M 19.000036 9.749334 " stroke="#475569" stroke-width="2" stroke-opacity="1" stroke-miterlimit="4"/></g></svg>