<svg xmlns="http://www.w3.org/2000/svg" width="500" height="500" viewBox="0 0 375 375"><defs><clipPath id="a411ff1510"><path d="M20.39 5H354v370H20.39Zm0 0"/></clipPath></defs><g clip-path="url(#a411ff1510)"><path fill="none" stroke="#475569" stroke-linecap="round" stroke-linejoin="round" stroke-width="2" d="M10 15a3.72 3.72 0 0 0-1 2.58V21m5-6a3.72 3.72 0 0 1 1 2.58V21m-6-1.95a5.7 5.7 0 0 1-2.82.36c-1.52-.52-1.12-1.9-1.9-2.47A2.37 2.37 0 0 0 3 16.5m16-6.75c0 3-1.95 5.25-7 5.25s-7-2.25-7-5.25a6.3 6.3 0 0 1 .68-3c-.34-1.47-.21-3.28.52-3.64s2.27.3 3.54 1.15a13 13 0 0 1 2.26-.2c.757-.007 1.513.053 2.26.18 1.27-.85 2.88-1.48 3.54-1.15s.86 2.17.52 3.64c.474.934.708 1.972.68 3.02m0 0" transform="matrix(18.4807 0 0 18.4651 -16.57 -31.312)"/></g></svg>