<svg xmlns="http://www.w3.org/2000/svg" width="500" height="500" viewBox="0 0 375 375"><path fill="#2197bd" d="M375 317.98c0 31.47-25.512 56.985-56.984 56.985H56.996c-31.473 0-56.98-25.516-56.98-56.985V56.957c0-31.469 25.507-56.98 56.98-56.98h261.02C349.488-.023 375 25.488 375 56.957Zm0 0"/><path fill="#fff" d="M148.293 133.762a28 28 0 0 1-.54 5.465q-.268 1.348-.667 2.668a28 28 0 0 1-2.102 5.074 28 28 0 0 1-1.414 2.355q-.762 1.145-1.636 2.207a27.7 27.7 0 0 1-3.883 3.883 29 29 0 0 1-2.207 1.64c-.766.508-1.551.981-2.36 1.41a27.591 27.591 0 0 1-5.074 2.102 26 26 0 0 1-2.668.668 27.7 27.7 0 0 1-5.465.54q-1.373 0-2.746-.133-1.365-.136-2.719-.407a26 26 0 0 1-2.664-.668 28 28 0 0 1-2.59-.926 27 27 0 0 1-2.484-1.176 28 28 0 0 1-2.36-1.41 29 29 0 0 1-2.207-1.64 28 28 0 0 1-2.035-1.844 27 27 0 0 1-1.848-2.04 27 27 0 0 1-1.637-2.207 27.6 27.6 0 0 1-2.59-4.844 28 28 0 0 1-1.996-7.973 28 28 0 0 1-.137-2.746 28 28 0 0 1 .54-5.465q.27-1.347.669-2.666a28 28 0 0 1 2.102-5.07q.648-1.218 1.413-2.36c.508-.761 1.055-1.5 1.637-2.207.582-.71 1.195-1.39 1.848-2.039a28 28 0 0 1 2.035-1.844 29 29 0 0 1 2.207-1.64 28.3 28.3 0 0 1 7.434-3.512c.874-.27 1.765-.492 2.663-.668q1.355-.27 2.72-.406c.913-.09 1.831-.133 2.745-.133q1.379-.001 2.746.133 1.371.136 2.72.406c.902.176 1.788.398 2.667.668q1.319.399 2.59.926 1.272.526 2.484 1.176 1.212.647 2.36 1.41a28.404 28.404 0 0 1 4.242 3.484 28 28 0 0 1 1.848 2.04 27 27 0 0 1 1.637 2.207q.765 1.14 1.413 2.359a27.7 27.7 0 0 1 2.102 5.07q.398 1.32.668 2.668.269 1.347.402 2.719.136 1.37.137 2.746m0 0"/><path fill="#fff" d="M96.129 182.426h48.125v154.816H96.129ZM174.523 182.426h45.805v154.816h-45.805Z"/><path fill="#fff" d="M176.504 264.855h45.8v72.387h-45.8Zm0 0"/><path fill="#fff" d="M222.305 264.855s-.715-20.082 4.582-30.52c0 0 5.297-12.858 21.941-12.937 0 0 19.524-3.406 25.121 15.965 0 0 2.121 10.742 2.121 15.285s.153 84.598.153 84.598h47.968v-88.683s3.485-50.094-26.582-63.817c0 0-49.437-22.195-76.27 18.566 0 0-5.855 4.032-6.663-7.265-.805-11.3-7.664 17.351-7.867 17.96-.204.606 7.867 57.102 7.867 57.102Zm0 0"/></svg>